<svg id="Layer_1" data-name="Layer 1" xmlns="http://www.w3.org/2000/svg" viewBox="0 0 599.77 284.22"><defs><style>.cls-1{fill:#2e3b49;}.cls-2{fill:#72d3b1;}</style></defs><title>Artboard 1 copy 2Vector</title><polygon class="cls-1" points="341.8 111.55 321.78 173.59 305.47 173.59 285.45 111.55 296.82 111.55 312.88 164.65 314.37 164.65 330.43 111.55 341.8 111.55"/><path class="cls-1" d="M389.86,170.24a15.75,15.75,0,0,1-10.87,4c-10.75,0-17.3-8.06-17.3-19.36V120.73H350.94v-8.06h3.83c4.82,0,8.28-3.47,8.28-8.56V92.93h9.14v18.61h15v9.06H372.32v33.25c0,7.94,3.71,10.55,7.91,10.55a7.31,7.31,0,0,0,4.94-1.74Z"/><path class="cls-1" d="M431,110.93V121.6a30.54,30.54,0,0,0-5.07-.5c-7.91,0-15.69,4.47-15.69,15.88v36.6H399.38v-62h7.17l2.1,6.95h1.73a21.17,21.17,0,0,1,16.81-7.57Z"/><path class="cls-1" d="M493.78,111.55v62h-7.17l-2-6.58H483c-2.72,3.1-8,7.2-17.3,7.2-15.94,0-23.73-11.79-23.73-29V111.55h10.87v29.9c0,11.42,2.23,23.33,15,23.33,9.39,0,15.08-6.45,15.08-20.35V111.55Z"/><path class="cls-1" d="M527.88,174.21c-14.21,0-23.48-9.31-23.48-20.6h10c0,7.69,6.55,11.66,13.34,11.66,5.81,0,11.25-2.85,11.25-8.93,0-6.33-6.06-8.31-12.85-10.17-8.4-2.23-19.9-5.58-19.9-18,0-11,9-17.25,20.39-17.25,13.84,0,21.38,9.06,21.38,17.62H538c0-4.59-4.82-8.81-11.37-8.81-5.69,0-10.13,3.23-10.13,8.31,0,5.71,5.81,7.69,11.86,9.31,9.39,2.48,20.88,5.71,20.88,18.49,0,11.54-9.27,18.37-21.38,18.37"/><path class="cls-2" d="M205.74,206.67a91.09,91.09,0,1,1,0-128.89,90.6,90.6,0,0,1,0,128.89M208.49,75A94.49,94.49,0,0,0,74.62,75a95.44,95.44,0,0,0,0,134.42,94.49,94.49,0,0,0,133.87,0,95.44,95.44,0,0,0,0-134.42"/><path class="cls-2" d="M199.34,193.69C188,205,157.4,220.25,141.56,220.25S95.08,205,83.78,193.69c-23.47-23.57-23.47-79.35,0-102.92,11.3-11.35,41.94-26.56,57.78-26.56S188,79.42,199.34,90.77c23.47,23.57,23.47,79.35,0,102.92M202.09,88c-12-12.1-43.57-27.71-60.53-27.71S93.07,75.91,81,88C56.3,112.84,56.3,171.62,81,196.45c12,12.1,43.57,27.71,60.53,27.71s48.48-15.61,60.53-27.71c24.73-24.83,24.73-83.62,0-108.45"/><path class="cls-2" d="M192.94,180.7c-5.92,5.94-44.4,26.43-51.38,26.43S96.1,186.65,90.18,180.7c-11.46-11.51-11.46-65.44,0-77,5.92-5.94,44.4-26.43,51.38-26.43S187,97.81,192.94,103.75c11.46,11.51,11.46,65.44,0,77M195.69,101c-6.3-6.33-45.41-27.58-54.13-27.58S93.73,94.66,87.43,101c-12.67,12.72-12.67,69.76,0,82.48,6.3,6.33,45.41,27.58,54.13,27.58s47.83-21.25,54.13-27.58c12.67-12.72,12.67-69.76,0-82.48"/><path class="cls-2" d="M186,168l-44.41,25.74L97.15,168V116.49l44.41-25.74L186,116.49ZM93.26,114.23v56l48.3,28,48.3-28v-56l-48.3-28Z"/><polygon class="cls-2" points="139.72 173.59 143.51 171.39 143.51 142.51 170.31 126.97 170.29 126.93 166.44 124.69 141.56 139.12 114.75 123.58 114.74 123.6 114.74 128.09 139.61 142.5 139.61 173.59 139.72 173.59"/></svg>